<svg width="343" height="138" viewBox="0 0 343 138" fill="none" xmlns="http://www.w3.org/2000/svg">
<path d="M174.465 93.305C172.228 94.3683 169.992 95.175 167.755 95.725C165.555 96.2383 163.355 96.495 161.155 96.495C158.222 96.495 155.508 96.0183 153.015 95.065C150.558 94.075 148.413 92.7183 146.58 90.995C144.747 89.2717 143.317 87.2367 142.29 84.89C141.263 82.5067 140.75 79.9217 140.75 77.135C140.75 74.385 141.245 71.855 142.235 69.545C143.262 67.1983 144.673 65.1817 146.47 63.495C148.267 61.7717 150.393 60.4333 152.85 59.48C155.307 58.49 157.983 57.995 160.88 57.995C161.943 57.995 162.952 58.0317 163.905 58.105C164.895 58.1783 165.903 58.3067 166.93 58.49C167.957 58.6733 169.02 58.9483 170.12 59.315C171.22 59.6817 172.43 60.1583 173.75 60.745L172.705 63.495C170.615 62.4317 168.562 61.6983 166.545 61.295C164.565 60.8917 162.53 60.69 160.44 60.69C158.057 60.69 155.857 61.1117 153.84 61.955C151.823 62.7617 150.082 63.9167 148.615 65.42C147.148 66.8867 145.993 68.6283 145.15 70.645C144.343 72.6617 143.94 74.8617 143.94 77.245C143.94 79.335 144.288 81.3883 144.985 83.405C145.682 85.385 146.745 87.145 148.175 88.685C149.605 90.225 151.402 91.4717 153.565 92.425C155.728 93.3417 158.295 93.8 161.265 93.8C163.465 93.8 165.353 93.5983 166.93 93.195C168.507 92.7917 170.047 92.2233 171.55 91.49V80.27L174.465 78.95V93.305ZM197.221 96.55L194.581 95.615C194.178 95.725 193.646 95.835 192.986 95.945C192.326 96.0183 191.611 96.0917 190.841 96.165C190.071 96.275 189.283 96.3483 188.476 96.385C187.67 96.4583 186.936 96.495 186.276 96.495C185.323 96.495 184.443 96.2933 183.636 95.89C182.83 95.45 182.115 94.8817 181.491 94.185C180.868 93.4883 180.373 92.7183 180.006 91.875C179.676 91.0317 179.511 90.17 179.511 89.29C179.511 87.53 179.915 86.1 180.721 85C181.528 83.8633 182.61 82.9833 183.966 82.36C185.36 81.7367 186.955 81.3333 188.751 81.15C190.585 80.93 192.528 80.8383 194.581 80.875V78.07C194.581 74.6967 192.748 73.01 189.081 73.01C187.908 73.01 186.661 73.175 185.341 73.505C184.021 73.7983 182.775 74.33 181.601 75.1L180.556 73.01C182.096 72.0567 183.636 71.4517 185.176 71.195C186.716 70.9383 188.165 70.81 189.521 70.81C190.291 70.81 191.116 70.9017 191.996 71.085C192.913 71.2683 193.756 71.5983 194.526 72.075C195.296 72.5517 195.938 73.2117 196.451 74.055C196.965 74.8983 197.221 75.9617 197.221 77.245V96.55ZM194.581 93.03V83.02C192.968 82.9467 191.41 82.9833 189.906 83.13C188.44 83.2767 187.138 83.5883 186.001 84.065C184.865 84.505 183.948 85.1467 183.251 85.99C182.591 86.8333 182.261 87.9333 182.261 89.29C182.261 90.72 182.72 91.9117 183.636 92.865C184.59 93.8183 185.763 94.295 187.156 94.295C187.743 94.295 188.403 94.2767 189.136 94.24C189.87 94.1667 190.585 94.075 191.281 93.965C191.978 93.855 192.62 93.7267 193.206 93.58C193.793 93.3967 194.251 93.2133 194.581 93.03ZM238.977 96H236.337V81.975C236.337 80.7283 236.227 79.5917 236.007 78.565C235.824 77.5017 235.476 76.585 234.962 75.815C234.486 75.045 233.826 74.4583 232.982 74.055C232.176 73.615 231.149 73.395 229.902 73.395C228.179 73.395 226.676 73.6883 225.392 74.275C224.146 74.825 222.972 75.6133 221.872 76.64C221.946 76.8233 222.056 77.3183 222.202 78.125C222.349 78.895 222.422 79.665 222.422 80.435V96H219.782V81.92C219.782 78.84 219.251 76.64 218.187 75.32C217.124 73.9633 215.492 73.285 213.292 73.285C211.496 73.285 210.047 73.5233 208.947 74C207.884 74.44 206.857 74.9717 205.867 75.595V96H203.227V71.305L205.867 72.79C206.821 72.2767 207.884 71.8367 209.057 71.47C210.267 71.0667 211.679 70.865 213.292 70.865C215.382 70.865 216.996 71.2133 218.132 71.91C219.269 72.57 220.149 73.3583 220.772 74.275C222.166 73.285 223.577 72.4783 225.007 71.855C226.474 71.2317 228.271 70.92 230.397 70.92C233.367 70.92 235.531 71.8183 236.887 73.615C238.281 75.375 238.977 77.7767 238.977 80.82V96ZM247.804 56.73L251.489 60.415L247.804 64.1L244.119 60.415L247.804 56.73ZM248.904 96H246.264V71.635L248.904 70.535V96ZM289.355 96L286.77 97.1L280.28 83.02H261.965L255.42 97.155L252.89 96L270.215 58.655L271.645 57.94L289.355 96ZM279.18 80.6L271.095 62.835L263.065 80.6H279.18ZM294.855 56.73L298.54 60.415L294.855 64.1L291.17 60.415L294.855 56.73ZM295.955 96H293.315V71.635L295.955 70.535V96Z" fill="black"/>
<rect x="18.5" y="21.5" width="95" height="95" fill="white" stroke="black"/>
<rect x="3.91355" y="42.353" width="95" height="95" transform="rotate(-22.5552 3.91355 42.353)" fill="white" stroke="black"/>
<path d="M0.706947 69.2931L66.4409 0.706984L135.027 66.4409L69.2931 135.027L0.706947 69.2931Z" fill="white" stroke="black"/>
<rect x="43.0332" y="5.66508" width="95" height="95" transform="rotate(25.1461 43.0332 5.66508)" fill="white" stroke="black"/>
<path d="M86.6416 88.2403L57.9554 85.2143L89.5472 80.3323L90.8868 104.666L29.6079 90.7491L44.7414 29.6329L96.9898 45.6573L75.2686 58.519L86.2665 49.1853L87.0497 48.5206L86.0434 48.3143L48.6985 40.6575L48.1882 40.5529L48.1046 41.067L41.0726 84.2863L41.009 84.6769L41.3746 84.8285L67.5646 95.6873L67.5913 95.6984L67.6191 95.7063L83.7106 100.29L84.2085 100.432L84.3329 99.9292L87.0745 88.8577L87.2124 88.3005L86.6416 88.2403Z" fill="black" stroke="black"/>
</svg>
