<svg width="136" height="138" viewBox="0 0 136 138" fill="none" xmlns="http://www.w3.org/2000/svg">
<rect x="18.5" y="21.5" width="95" height="95" fill="white" stroke="black"/>
<rect x="3.91355" y="42.353" width="95" height="95" transform="rotate(-22.5552 3.91355 42.353)" fill="white" stroke="black"/>
<path d="M0.706947 69.2931L66.4409 0.706984L135.027 66.4409L69.2931 135.027L0.706947 69.2931Z" fill="white" stroke="black"/>
<rect x="43.0331" y="5.66508" width="95" height="95" transform="rotate(25.1461 43.0331 5.66508)" fill="white" stroke="black"/>
<path d="M86.6416 88.2403L57.9554 85.2143L89.5472 80.3323L90.8868 104.666L29.6079 90.7491L44.7414 29.6329L96.9898 45.6573L75.2686 58.519L86.2665 49.1853L87.0497 48.5206L86.0434 48.3143L48.6985 40.6575L48.1882 40.5529L48.1046 41.067L41.0726 84.2863L41.009 84.6769L41.3746 84.8285L67.5646 95.6873L67.5913 95.6984L67.6191 95.7063L83.7106 100.29L84.2085 100.432L84.3329 99.9292L87.0745 88.8577L87.2124 88.3005L86.6416 88.2403Z" fill="black" stroke="black"/>
</svg>
